<?xml version="1.0" encoding="UTF-8" standalone="no"?>
<!DOCTYPE svg PUBLIC "-//W3C//DTD SVG 1.1//EN" "http://www.w3.org/Graphics/SVG/1.1/DTD/svg11.dtd">
<svg width="100%" height="100%" viewBox="0 0 33 23" version="1.1" xmlns="http://www.w3.org/2000/svg" xmlns:xlink="http://www.w3.org/1999/xlink" xml:space="preserve" xmlns:serif="http://www.serif.com/" style="fill-rule:evenodd;clip-rule:evenodd;stroke-linejoin:round;stroke-miterlimit:2;">
    <g transform="matrix(1.03122,0,0,1.03122,4.44094e-16,-5.01805)">
        <path d="M31.565,14.947L22.042,5.425C21.775,5.167 21.411,5.008 21.009,5.008C20.187,5.008 19.521,5.674 19.521,6.496C19.521,6.897 19.68,7.262 19.938,7.529L26.92,14.511L1.488,14.511C0.666,14.511 0,15.177 0,15.999C0,16.821 0.666,17.487 1.488,17.487L26.92,17.487L19.938,24.469C19.657,24.74 19.483,25.12 19.483,25.54C19.483,26.362 20.149,27.028 20.971,27.028C21.391,27.028 21.771,26.854 22.042,26.573L31.565,17.051C31.835,16.782 32.001,16.409 32.001,15.998C32.001,15.587 31.834,15.215 31.565,14.945L31.565,14.947Z" style="fill:white;fill-rule:nonzero;"/>
    </g>
</svg>
