<?xml version="1.0" encoding="UTF-8"?>
<svg xmlns="http://www.w3.org/2000/svg" xmlns:xlink="http://www.w3.org/1999/xlink" width="195pt" height="57pt" viewBox="0 0 195 57" version="1.1">
<g id="surface1">
<path style=" stroke:none;fill-rule:evenodd;fill:rgb(92.54902%,48.627451%,10.980392%);fill-opacity:1;" d="M 17.242188 0.664062 C 16.769531 1.03125 16.199219 1.457031 15.960938 1.617188 C 15.417969 1.984375 15.441406 2.097656 16.285156 2.988281 C 16.40625 3.121094 16.507812 3.261719 16.507812 3.292969 C 16.507812 3.417969 16.792969 3.257812 17.3125 2.84375 L 17.832031 2.433594 L 18.003906 2.667969 C 18.1875 2.925781 22.667969 8.820312 23.734375 10.207031 C 24.578125 11.304688 24.503906 11.28125 25.246094 10.722656 C 26.054688 10.105469 26.199219 10.484375 24.027344 7.65625 C 23.558594 7.046875 22.261719 5.347656 19.457031 1.664062 C 18.761719 0.746094 18.171875 0 18.144531 0 C 18.117188 0 17.710938 0.300781 17.242188 0.664062 M 47.71875 8.980469 C 47.328125 9.664062 47.332031 9.675781 47.90625 9.996094 C 48.25 10.1875 48.378906 10.300781 48.324219 10.367188 C 48.285156 10.417969 47.507812 11.753906 46.601562 13.332031 C 45.695312 14.910156 44.777344 16.496094 44.570312 16.859375 C 44.355469 17.222656 44.167969 17.574219 44.148438 17.636719 C 44.109375 17.757812 45.042969 18.378906 45.246094 18.371094 C 45.300781 18.371094 46.105469 17.054688 47.039062 15.441406 C 47.972656 13.828125 48.925781 12.195312 49.164062 11.816406 C 49.394531 11.429688 49.679688 10.949219 49.792969 10.746094 C 49.902344 10.546875 50.078125 10.246094 50.171875 10.082031 L 50.351562 9.78125 L 49.921875 9.519531 C 47.808594 8.246094 48.097656 8.320312 47.71875 8.980469 M 91.335938 20.847656 L 91.335938 25.859375 L 91.035156 25.59375 C 90.363281 25.003906 89.429688 24.832031 88.082031 25.050781 C 85.902344 25.414062 84.378906 27.058594 83.960938 29.5 C 83.765625 30.636719 83.84375 42.910156 84.050781 43.648438 C 84.511719 45.308594 85.582031 46.621094 86.863281 47.09375 C 87.109375 47.183594 87.382812 47.296875 87.472656 47.335938 C 88.648438 47.894531 90.378906 47.496094 91.085938 46.511719 L 91.335938 46.167969 L 91.335938 47.171875 L 94.996094 47.171875 L 94.996094 15.832031 L 91.335938 15.832031 L 91.335938 20.847656 M 96.152344 17.738281 L 96.175781 19.648438 L 98.0625 19.667969 L 99.957031 19.691406 L 99.957031 15.832031 L 96.128906 15.832031 L 96.152344 17.738281 M 63.359375 24.996094 C 60.789062 25.246094 59.101562 26.769531 58.597656 29.273438 C 58.488281 29.820312 58.476562 30.796875 58.496094 36.550781 L 58.515625 43.195312 L 58.707031 43.769531 C 59.226562 45.339844 60.332031 46.546875 61.730469 47.085938 C 61.976562 47.179688 62.242188 47.296875 62.316406 47.339844 C 62.796875 47.617188 65.109375 47.625 65.605469 47.347656 C 65.6875 47.304688 65.9375 47.207031 66.160156 47.140625 C 67.972656 46.554688 69.308594 44.789062 69.585938 42.597656 L 69.640625 42.167969 L 67.746094 42.191406 L 65.855469 42.210938 L 65.75 42.566406 C 65.339844 43.976562 63.0625 44.128906 62.355469 42.796875 L 62.179688 42.457031 L 62.179688 36.222656 C 62.179688 30.289062 62.183594 29.976562 62.328125 29.699219 C 63.105469 28.230469 65.488281 28.515625 65.839844 30.121094 L 65.890625 30.355469 L 67.753906 30.355469 C 69.191406 30.355469 69.621094 30.332031 69.617188 30.253906 C 69.613281 29.050781 68.824219 27.195312 68.03125 26.511719 C 66.945312 25.574219 66.117188 25.199219 64.742188 25.027344 C 64.0625 24.941406 63.925781 24.9375 63.359375 24.996094 M 75.867188 25.03125 C 73.347656 25.371094 71.277344 27.5625 70.992188 30.175781 C 70.847656 31.570312 70.941406 42.515625 71.109375 43.070312 C 71.476562 44.300781 72.261719 45.425781 73.308594 46.222656 C 73.894531 46.671875 74.988281 47.257812 75.230469 47.257812 C 75.304688 47.257812 75.40625 47.304688 75.460938 47.359375 C 75.589844 47.488281 77.890625 47.503906 77.976562 47.375 C 78.011719 47.328125 78.203125 47.242188 78.402344 47.179688 C 80.042969 46.699219 81.554688 45.085938 82.039062 43.320312 C 82.265625 42.496094 82.265625 30.015625 82.035156 29.214844 C 81.257812 26.453125 78.609375 24.652344 75.867188 25.03125 M 106.488281 25.019531 C 104.164062 25.382812 102.324219 27.09375 101.789062 29.382812 C 101.683594 29.828125 101.667969 31.171875 101.664062 38.542969 L 101.664062 47.171875 L 105.324219 47.171875 L 105.324219 39.015625 C 105.324219 33.515625 105.351562 30.722656 105.410156 30.449219 C 105.722656 28.976562 107.519531 28.464844 108.550781 29.546875 C 109.09375 30.121094 109.066406 29.566406 109.066406 38.804688 L 109.066406 47.171875 L 112.8125 47.171875 L 112.785156 38.335938 C 112.757812 28.53125 112.804688 29.304688 112.226562 28.09375 C 111.234375 26.007812 108.730469 24.667969 106.488281 25.019531 M 119.289062 25.023438 C 116.929688 25.316406 115.199219 26.863281 114.679688 29.144531 C 114.507812 29.890625 114.503906 30.011719 114.53125 36.589844 L 114.5625 43.277344 L 114.746094 43.890625 C 115.464844 46.265625 116.789062 47.078125 120.066406 47.152344 L 121.832031 47.191406 L 121.839844 49.253906 C 121.851562 51.796875 121.867188 51.644531 121.59375 52.136719 C 120.898438 53.390625 118.894531 53.1875 118.375 51.8125 L 118.234375 51.441406 L 114.503906 51.441406 L 114.558594 51.832031 C 114.980469 54.898438 116.992188 56.644531 120.125 56.648438 C 123.070312 56.652344 125.0625 55.175781 125.535156 52.644531 C 125.683594 51.851562 125.71875 30.46875 125.574219 29.535156 C 125.085938 26.429688 122.5625 24.617188 119.289062 25.023438 M 96.132812 36.222656 L 96.132812 47.171875 L 99.957031 47.171875 L 99.957031 25.269531 L 96.132812 25.269531 L 96.132812 36.222656 M 121.054688 29.09375 C 121.917969 29.644531 121.859375 29.09375 121.847656 36.898438 L 121.832031 43.320312 L 120.589844 43.320312 C 118.800781 43.320312 118.332031 43.035156 118.214844 41.902344 C 118.0625 40.398438 118.210938 30.15625 118.390625 29.820312 C 118.914062 28.84375 120.136719 28.507812 121.054688 29.09375 M 90.324219 29.109375 C 90.691406 29.300781 90.929688 29.539062 91.140625 29.945312 C 91.324219 30.289062 91.425781 41.148438 91.253906 42.066406 C 90.988281 43.53125 89.328125 44.101562 88.1875 43.117188 C 87.558594 42.574219 87.585938 42.882812 87.613281 36.089844 L 87.636719 30.054688 L 87.855469 29.734375 C 88.414062 28.929688 89.464844 28.664062 90.324219 29.109375 M 77.464844 29.164062 C 77.839844 29.382812 78.203125 29.851562 78.324219 30.28125 C 78.371094 30.453125 78.402344 32.808594 78.402344 36.304688 L 78.402344 42.046875 L 78.207031 42.457031 C 77.625 43.707031 76.320312 43.9375 75.355469 42.964844 C 74.714844 42.3125 74.742188 42.601562 74.742188 36.167969 L 74.742188 30.46875 L 74.953125 30.046875 C 75.441406 29.0625 76.605469 28.652344 77.464844 29.164062 M 5.886719 33.96875 C 5.128906 34.195312 4.402344 34.996094 4.226562 35.804688 C 4.132812 36.214844 4.167969 36.503906 4.871094 40.636719 C 5.277344 43.054688 5.609375 45.117188 5.609375 45.230469 C 5.609375 45.921875 6.335938 46.921875 7.09375 47.265625 L 7.523438 47.464844 L 23.140625 47.464844 L 23.589844 47.25 C 24.839844 46.660156 25 46.234375 25.046875 43.402344 L 25.089844 41.144531 L 28.140625 41.101562 L 28.140625 43.09375 C 28.140625 45.6875 28.304688 46.320312 29.136719 46.960938 C 29.832031 47.488281 29.332031 47.464844 37.941406 47.464844 L 45.75 47.464844 L 46.125 47.273438 C 47.046875 46.8125 47.519531 46.121094 47.65625 45.042969 C 47.699219 44.703125 48.046875 42.585938 48.425781 40.335938 C 49.027344 36.796875 49.109375 36.195312 49.039062 35.875 C 48.863281 35.085938 48.382812 34.464844 47.671875 34.113281 L 47.292969 33.925781 L 38.738281 33.902344 C 29.039062 33.878906 29.703125 33.832031 28.957031 34.554688 C 28.289062 35.207031 28.183594 35.566406 28.15625 37.433594 L 28.125 39.054688 L 25.089844 39.011719 L 25.046875 37.328125 C 25 35.203125 24.796875 34.722656 23.710938 34.144531 L 23.304688 33.925781 L 14.722656 33.910156 C 9.707031 33.902344 6.035156 33.929688 5.886719 33.96875 M 23.226562 35.71875 L 23.503906 36 L 23.503906 45.289062 L 23.226562 45.59375 L 22.945312 45.902344 L 7.714844 45.902344 L 7.445312 45.609375 C 7.257812 45.398438 7.160156 45.203125 7.121094 44.914062 C 7.085938 44.691406 6.753906 42.714844 6.375 40.53125 C 5.582031 35.921875 5.597656 36.09375 5.972656 35.71875 L 6.246094 35.441406 L 22.949219 35.441406 L 23.226562 35.71875 M 47.082031 35.5625 C 47.660156 35.863281 47.667969 35.742188 46.820312 40.769531 C 46.011719 45.566406 45.996094 45.621094 45.503906 45.828125 C 45.085938 46.003906 30.710938 46 30.292969 45.828125 C 29.667969 45.5625 29.6875 45.722656 29.6875 40.667969 C 29.6875 35.910156 29.679688 35.96875 30.078125 35.628906 L 30.292969 35.441406 L 38.574219 35.441406 C 45.664062 35.441406 46.886719 35.460938 47.082031 35.5625 "/>
<path style=" stroke:none;fill-rule:evenodd;fill:rgb(98.431373%,98.039216%,98.039216%);fill-opacity:1;" d="M 14.675781 33.054688 C 14.628906 33.109375 13.019531 33.15625 10.203125 33.171875 C 5.304688 33.214844 5.34375 33.210938 4.855469 33.5 C 3.640625 34.21875 3.222656 35.367188 3.53125 37.136719 C 3.597656 37.503906 3.628906 37.875 3.613281 37.957031 C 3.589844 38.039062 3.738281 39.085938 3.9375 40.285156 C 4.613281 44.292969 4.703125 44.832031 4.757812 45.304688 C 4.785156 45.5625 4.871094 45.859375 4.949219 45.960938 C 5.027344 46.0625 5.128906 46.242188 5.179688 46.355469 C 5.226562 46.46875 5.390625 46.722656 5.542969 46.921875 C 5.695312 47.121094 5.871094 47.375 5.941406 47.492188 C 6.011719 47.609375 6.324219 47.832031 6.632812 47.992188 L 7.195312 48.28125 L 23.460938 48.28125 L 23.933594 48.050781 C 25.398438 47.324219 25.722656 46.574219 25.78125 43.769531 L 25.820312 41.882812 L 27.40625 41.835938 L 27.410156 43.539062 C 27.421875 46.289062 27.855469 47.355469 29.238281 48.042969 L 29.726562 48.28125 L 45.992188 48.28125 L 46.523438 48.027344 C 47.367188 47.625 48.265625 46.300781 48.417969 45.234375 C 48.625 43.835938 48.738281 43.171875 48.800781 43.03125 C 48.921875 42.765625 49.695312 38.042969 49.644531 37.859375 C 49.621094 37.765625 49.660156 37.359375 49.726562 36.957031 C 49.914062 35.890625 49.894531 35.523438 49.625 34.921875 C 49.375 34.371094 48.785156 33.667969 48.640625 33.757812 C 48.59375 33.789062 48.441406 33.730469 48.300781 33.632812 C 48 33.414062 47.175781 33.148438 46.816406 33.148438 C 46.671875 33.148438 46.515625 33.109375 46.46875 33.058594 C 46.417969 33.003906 45.421875 32.992188 43.507812 33.019531 C 39.816406 33.078125 37.648438 33.078125 33.6875 33.019531 C 30.472656 32.976562 29.683594 33.019531 29.488281 33.253906 C 29.441406 33.316406 29.234375 33.460938 29.03125 33.578125 C 27.878906 34.238281 27.40625 35.300781 27.40625 37.253906 L 27.40625 38.3125 L 25.796875 38.3125 L 25.769531 36.941406 C 25.730469 35.097656 25.207031 33.996094 24.164062 33.558594 C 24.023438 33.5 23.910156 33.417969 23.910156 33.378906 C 23.910156 33.046875 14.996094 32.738281 14.675781 33.054688 M 23.652344 34.03125 C 24.835938 34.667969 25.082031 35.226562 25.117188 37.347656 L 25.144531 38.96875 L 28.042969 38.96875 L 28.070312 37.390625 L 28.097656 35.808594 L 28.367188 35.257812 C 28.679688 34.625 29.132812 34.203125 29.761719 33.957031 C 30.363281 33.730469 46.714844 33.710938 47.414062 33.941406 C 48.238281 34.207031 48.996094 35.140625 49.09375 36.003906 C 49.125 36.273438 48.921875 37.664062 48.40625 40.734375 C 48.003906 43.125 47.652344 45.246094 47.625 45.4375 C 47.519531 46.179688 46.96875 46.894531 46.230469 47.265625 L 45.828125 47.464844 L 38.023438 47.480469 C 29.429688 47.507812 29.84375 47.53125 29.125 46.996094 C 28.222656 46.328125 28.058594 45.742188 28.058594 43.136719 L 28.058594 41.1875 L 25.144531 41.1875 L 25.117188 43.378906 L 25.089844 45.574219 L 24.867188 46.042969 C 24.617188 46.546875 24.191406 46.984375 23.652344 47.273438 L 23.304688 47.464844 L 15.507812 47.484375 C 7.15625 47.507812 7.355469 47.515625 6.699219 47.070312 C 5.8125 46.46875 5.699219 46.171875 5.210938 43.195312 C 5.03125 42.066406 4.6875 40.015625 4.457031 38.640625 L 4.035156 36.140625 L 4.175781 35.675781 C 4.40625 34.886719 5.15625 34.109375 5.886719 33.890625 C 6.035156 33.84375 9.707031 33.820312 14.722656 33.828125 L 23.304688 33.84375 L 23.652344 34.03125 M 6.207031 35.601562 C 5.632812 35.957031 5.625 35.785156 6.5 40.976562 C 7.277344 45.546875 7.277344 45.546875 7.644531 45.738281 C 7.996094 45.921875 22.65625 45.925781 23.011719 45.742188 C 23.515625 45.480469 23.511719 45.511719 23.484375 40.535156 L 23.460938 36.023438 L 23.195312 35.75 L 22.929688 35.484375 L 14.699219 35.460938 C 6.65625 35.441406 6.460938 35.445312 6.207031 35.601562 M 30.277344 35.5625 C 29.753906 35.792969 29.765625 35.695312 29.765625 40.738281 L 29.765625 45.304688 L 30.320312 45.863281 L 45.460938 45.863281 L 45.714844 45.636719 L 45.964844 45.40625 L 46.730469 40.976562 C 47.648438 35.652344 47.640625 35.84375 46.964844 35.558594 C 46.558594 35.386719 30.671875 35.390625 30.277344 35.5625 M 22.71875 40.507812 C 22.695312 42.886719 22.664062 44.882812 22.648438 44.9375 C 22.621094 45.019531 21.59375 45.042969 17.855469 45.042969 C 14.734375 45.042969 13.09375 45.070312 13.09375 45.121094 C 13.09375 45.175781 12.632812 45.207031 11.875 45.207031 C 11.132812 45.207031 10.65625 45.175781 10.65625 45.125 C 10.65625 45.078125 10.109375 45.039062 9.296875 45.023438 L 7.941406 45 L 7.644531 43.277344 C 7.484375 42.332031 7.324219 41.5 7.296875 41.429688 C 7.230469 41.277344 6.914062 39.40625 6.902344 39.082031 C 6.894531 38.953125 6.800781 38.300781 6.691406 37.628906 C 6.582031 36.964844 6.511719 36.363281 6.539062 36.300781 C 6.578125 36.195312 7.714844 36.179688 14.667969 36.179688 L 22.761719 36.179688 L 22.71875 40.507812 M 46.730469 36.363281 C 46.675781 36.558594 45.527344 43.160156 45.382812 44.117188 C 45.230469 45.15625 45.414062 45.042969 43.835938 45.042969 C 42.96875 45.042969 42.457031 45.074219 42.457031 45.121094 C 42.457031 45.175781 42.078125 45.207031 41.476562 45.207031 C 40.886719 45.207031 40.503906 45.171875 40.503906 45.125 C 40.503906 45.074219 38.75 45.035156 35.523438 45.023438 L 30.539062 45 L 30.488281 40.652344 C 30.460938 38.257812 30.453125 36.277344 30.472656 36.242188 C 30.492188 36.207031 34.171875 36.179688 38.648438 36.179688 L 46.785156 36.179688 L 46.730469 36.363281 "/>
<path style=" stroke:none;fill-rule:evenodd;fill:rgb(26.666667%,26.666667%,26.666667%);fill-opacity:1;" d="M 36.042969 0.171875 C 33.664062 1.117188 32.070312 7.21875 33.59375 9.539062 C 34.570312 11.023438 36.917969 11.253906 38.269531 10 C 39.957031 8.429688 40.96875 3.644531 40.035156 1.652344 C 39.410156 0.3125 37.484375 -0.398438 36.042969 0.171875 M 37.984375 1.414062 C 39.105469 1.988281 39.277344 3.261719 38.589844 5.949219 C 38.152344 7.671875 37.421875 9.1875 37.042969 9.1875 C 37.011719 9.1875 36.875 9.273438 36.734375 9.371094 C 35.425781 10.3125 34.132812 8.570312 34.480469 6.324219 C 35.0625 2.550781 36.4375 0.625 37.984375 1.414062 M 11.792969 7.429688 C 10.078125 8.234375 10.027344 10.664062 11.664062 13.394531 C 12.714844 15.144531 14.296875 15.613281 15.648438 14.570312 C 16.488281 13.925781 16.804688 12.164062 16.257812 11.164062 C 16.21875 11.089844 16.058594 10.710938 15.898438 10.308594 C 14.832031 7.632812 13.441406 6.660156 11.792969 7.429688 M 13.222656 8.335938 C 14.359375 8.878906 15.75 12.449219 15.21875 13.453125 C 14.375 15.066406 12.523438 13.550781 11.714844 10.582031 C 11.253906 8.890625 12.015625 7.757812 13.222656 8.335938 M 20.332031 13.578125 C 18.660156 13.957031 17.359375 14.882812 16.394531 16.382812 L 16.015625 16.96875 L 15.46875 17.027344 C 12.320312 17.339844 9.859375 18.863281 8.660156 21.25 C 8.480469 21.609375 8.417969 21.660156 7.886719 21.867188 C 5.1875 22.90625 3.566406 25.347656 3.566406 28.371094 L 3.566406 29.460938 L 3.207031 29.847656 C 1.46875 31.707031 0.59375 34.878906 1.296875 36.785156 C 1.339844 36.902344 1.253906 37.136719 1.007812 37.613281 C -0.246094 40 -0.300781 42.464844 0.855469 44.855469 L 1.300781 45.773438 L 1.300781 47.5 L 3.578125 47.5 C 4.832031 47.5 5.855469 47.480469 5.855469 47.457031 C 5.855469 47.429688 5.730469 47.261719 5.582031 47.082031 C 5.429688 46.902344 5.1875 46.535156 5.050781 46.269531 C 4.90625 46 4.707031 45.738281 4.613281 45.6875 C 2.320312 44.488281 1.664062 40.714844 3.339844 38.363281 L 3.597656 38 L 3.460938 37.230469 C 3.265625 36.152344 3.378906 34.242188 3.683594 33.484375 C 4.015625 32.648438 4.414062 32.039062 4.515625 32.207031 C 4.859375 32.8125 5.265625 33.183594 5.539062 33.160156 C 5.691406 33.140625 7.792969 33.105469 10.207031 33.074219 C 13.050781 33.039062 14.597656 32.996094 14.59375 32.941406 C 14.589844 32.894531 14.492188 32.65625 14.375 32.402344 C 14.117188 31.863281 13.945312 30.867188 14.019531 30.347656 L 14.074219 29.976562 L 14.660156 29.789062 C 15.539062 29.5 15.808594 29.195312 15.761719 28.546875 C 15.699219 27.675781 15.171875 27.378906 14.324219 27.742188 C 13.59375 28.054688 12.804688 28.023438 12.390625 27.667969 C 11.691406 27.0625 11.070312 27.035156 10.730469 27.59375 C 10.351562 28.222656 10.585938 28.863281 11.425781 29.472656 L 11.753906 29.710938 L 11.726562 30.503906 C 11.714844 30.980469 11.753906 31.589844 11.832031 32.03125 C 11.992188 32.925781 12.070312 32.859375 10.789062 32.851562 C 7.660156 32.84375 5.855469 31.195312 5.859375 28.347656 C 5.859375 26.132812 7.265625 24.453125 9.632812 23.835938 C 10.207031 23.6875 10.128906 23.769531 10.453125 23.003906 C 11.289062 21.074219 12.761719 19.988281 15.09375 19.578125 L 15.347656 19.535156 L 15.398438 20.371094 C 15.445312 21.203125 15.703125 22.441406 15.859375 22.597656 C 15.90625 22.640625 15.941406 22.730469 15.941406 22.796875 C 15.941406 22.953125 16.753906 24.199219 17.140625 24.621094 C 17.914062 25.488281 19.410156 26.269531 20.691406 26.480469 C 21.078125 26.539062 21.101562 26.558594 21.332031 27.007812 C 21.753906 27.855469 22.210938 28.128906 22.785156 27.890625 C 23.386719 27.636719 23.480469 27.023438 23.046875 26.132812 C 22.683594 25.378906 22.664062 24.988281 22.964844 24.359375 C 23.390625 23.453125 23.0625 22.726562 22.234375 22.726562 C 21.785156 22.726562 21.472656 22.988281 21.214844 23.585938 C 20.996094 24.097656 21.007812 24.09375 20.378906 23.875 C 18.535156 23.238281 17.519531 21.4375 17.804688 19.316406 C 18.34375 15.316406 23.832031 14.578125 25.109375 18.335938 L 25.332031 18.996094 L 25.359375 23.777344 C 25.390625 29.640625 25.273438 30.5 24.152344 32.59375 L 23.824219 33.214844 L 24.308594 33.546875 C 25.46875 34.34375 25.808594 35.078125 25.847656 36.898438 L 25.878906 38.234375 L 27.328125 38.234375 L 27.328125 37.144531 C 27.332031 35.171875 27.867188 34.074219 29.125 33.429688 C 29.351562 33.3125 29.519531 33.191406 29.503906 33.160156 C 28.894531 31.996094 28.347656 30.59375 28.058594 29.457031 C 27.808594 28.46875 27.808594 19.570312 28.054688 18.589844 C 28.550781 16.640625 30.136719 15.605469 32.144531 15.910156 C 36.179688 16.523438 36.691406 22.53125 32.816406 23.875 C 32.265625 24.066406 32.125 24.078125 32.125 23.9375 C 32.125 23.722656 31.648438 22.820312 31.464844 22.695312 C 30.566406 22.058594 29.648438 23.105469 30.191406 24.144531 C 30.480469 24.695312 30.445312 25.492188 30.109375 26.148438 C 29.597656 27.148438 29.871094 27.933594 30.730469 27.933594 C 31.238281 27.933594 31.464844 27.742188 31.808594 27.015625 C 32 26.605469 32.089844 26.5 32.242188 26.5 C 32.652344 26.5 33.757812 26.152344 34.480469 25.789062 C 36.429688 24.824219 37.589844 22.917969 37.714844 20.484375 L 37.761719 19.515625 L 38.097656 19.566406 C 40.589844 19.957031 42.226562 21.28125 43.011719 23.542969 C 43.082031 23.753906 43.140625 23.789062 43.371094 23.789062 C 46.628906 23.789062 48.429688 28.480469 46.675781 32.394531 C 46.394531 33.027344 46.394531 33.027344 47.023438 33.085938 C 47.378906 33.121094 47.699219 33.21875 48.097656 33.425781 C 48.757812 33.769531 48.753906 33.769531 49.058594 32.917969 C 49.277344 32.320312 49.316406 32.304688 49.519531 32.714844 C 50.03125 33.746094 50.097656 35.492188 49.699219 37.492188 C 49.636719 37.796875 49.648438 37.90625 49.777344 38.109375 C 51.585938 41.027344 51.238281 43.652344 48.824219 45.265625 C 48.515625 45.476562 48.375 45.632812 48.300781 45.851562 C 48.144531 46.339844 47.929688 46.726562 47.582031 47.132812 C 47.398438 47.339844 47.253906 47.527344 47.253906 47.546875 C 47.253906 47.570312 48.316406 47.585938 49.613281 47.585938 L 51.976562 47.585938 L 51.964844 46.644531 C 51.949219 45.734375 51.957031 45.691406 52.199219 45.261719 C 53.511719 42.917969 53.566406 40.261719 52.355469 37.816406 L 51.929688 36.957031 L 52.074219 36.382812 C 52.664062 34.054688 52.039062 31.679688 50.359375 29.847656 L 49.804688 29.25 L 49.707031 28.222656 C 49.40625 25.027344 47.765625 22.648438 45.238281 21.734375 C 44.789062 21.574219 44.703125 21.507812 44.554688 21.21875 C 43.394531 18.886719 40.820312 17.300781 37.757812 17.015625 L 37.171875 16.960938 L 36.953125 16.582031 C 34.78125 12.808594 29.136719 12.324219 26.773438 15.710938 L 26.601562 15.957031 L 26.464844 15.753906 C 25.34375 14.074219 22.523438 13.078125 20.332031 13.578125 M 143.035156 15.808594 C 143.003906 15.835938 142.980469 16.722656 142.980469 17.773438 L 142.980469 19.691406 L 146.804688 19.691406 L 146.78125 17.738281 L 146.761719 15.792969 L 144.925781 15.773438 C 143.917969 15.757812 143.066406 15.773438 143.035156 15.808594 M 176.082031 21.410156 L 176.082031 25.269531 L 173.480469 25.269531 L 173.480469 29.207031 L 176.074219 29.207031 L 176.121094 43.113281 L 176.339844 43.714844 C 176.835938 45.082031 178.03125 46.476562 179.171875 47.007812 C 179.507812 47.167969 179.800781 47.316406 179.824219 47.34375 C 179.933594 47.476562 180.789062 47.609375 181.796875 47.644531 L 182.914062 47.6875 L 182.914062 43.726562 L 182.039062 43.726562 C 180.765625 43.71875 180.367188 43.539062 180.035156 42.828125 C 179.863281 42.460938 179.863281 42.371094 179.839844 35.832031 L 179.816406 29.207031 L 182.914062 29.207031 L 182.914062 25.269531 L 179.824219 25.269531 L 179.824219 17.558594 L 176.082031 17.558594 L 176.082031 21.410156 M 135.171875 25.03125 C 132.789062 25.199219 130.941406 26.757812 130.324219 29.125 C 130.152344 29.773438 130.054688 40.917969 130.203125 42.542969 C 130.519531 45.972656 131.917969 47.144531 135.800781 47.234375 L 137.53125 47.277344 L 137.53125 49.460938 C 137.527344 52.125 137.445312 52.417969 136.597656 52.859375 C 135.609375 53.359375 134.210938 52.773438 133.992188 51.765625 L 133.9375 51.523438 L 130.210938 51.523438 L 130.214844 51.789062 C 130.226562 54.617188 132.648438 56.734375 135.863281 56.730469 C 138.578125 56.726562 140.292969 55.617188 141.089844 53.355469 L 141.3125 52.714844 L 141.3125 41.105469 C 141.3125 28.078125 141.359375 29.105469 140.707031 27.769531 C 139.75 25.824219 137.777344 24.847656 135.171875 25.03125 M 166.199219 25.035156 C 163.984375 25.234375 161.832031 27.117188 161.324219 29.300781 C 161.214844 29.746094 161.203125 31.070312 161.199219 38.542969 L 161.199219 47.257812 L 164.9375 47.257812 L 164.9375 38.984375 C 164.9375 32.082031 164.957031 30.644531 165.054688 30.324219 C 165.480469 28.894531 167.191406 28.507812 168.140625 29.625 C 168.613281 30.183594 168.597656 29.878906 168.597656 38.917969 L 168.597656 47.257812 L 172.421875 47.257812 L 172.417969 38.621094 C 172.417969 28.964844 172.441406 29.371094 171.84375 28.140625 C 170.832031 26.074219 168.554688 24.820312 166.199219 25.035156 M 152.832031 25.109375 C 150.527344 25.527344 148.4375 27.925781 148.429688 30.171875 L 148.429688 30.519531 L 152.09375 30.519531 L 152.171875 30.296875 C 152.769531 28.636719 154.800781 28.527344 155.636719 30.109375 C 155.769531 30.359375 155.792969 30.628906 155.816406 32.109375 L 155.839844 33.824219 L 155.460938 33.488281 C 153.738281 31.960938 150.25 33.113281 149 35.625 C 148.066406 37.503906 148.085938 42.890625 149.039062 44.804688 C 150.484375 47.710938 154.023438 48.648438 155.605469 46.539062 L 155.828125 46.242188 L 155.828125 47.257812 L 159.578125 47.257812 L 159.550781 38.5 C 159.523438 28.796875 159.558594 29.425781 158.984375 28.226562 C 157.910156 25.953125 155.34375 24.65625 152.832031 25.109375 M 188.402344 25.140625 C 182.675781 26.476562 182.464844 35.070312 188.125 36.550781 C 188.402344 36.625 189.007812 36.714844 189.460938 36.753906 C 191.316406 36.902344 191.476562 37.191406 191.4375 40.3125 L 191.414062 42.375 L 191.171875 42.8125 C 190.433594 44.15625 188.464844 43.996094 187.914062 42.546875 L 187.769531 42.171875 L 183.960938 42.171875 L 184.015625 42.558594 C 184.503906 46.078125 188.476562 48.617188 191.496094 47.34375 C 193.429688 46.527344 194.519531 45.371094 195 43.605469 C 195.171875 42.988281 195.257812 38.824219 195.125 37.726562 C 194.804688 35.074219 192.859375 33.242188 190 32.902344 C 188.113281 32.679688 187.261719 31.429688 188.003906 29.972656 C 188.742188 28.515625 191.371094 28.84375 191.371094 30.394531 C 191.371094 30.503906 191.613281 30.519531 193.242188 30.519531 L 195.113281 30.519531 L 195.109375 30.089844 C 195.101562 26.964844 191.613281 24.394531 188.402344 25.140625 M 142.980469 36.261719 L 142.980469 47.257812 L 146.800781 47.257812 L 146.800781 25.269531 L 142.980469 25.269531 L 142.980469 36.261719 M 136.1875 28.882812 C 136.703125 29.023438 137.097656 29.34375 137.324219 29.808594 L 137.53125 30.222656 L 137.53125 43.402344 L 136.363281 43.402344 C 134.738281 43.402344 134.277344 43.21875 133.992188 42.464844 C 133.765625 41.871094 133.847656 30.273438 134.078125 29.824219 C 134.480469 29.054688 135.363281 28.664062 136.1875 28.882812 M 40.339844 30.824219 C 40.273438 30.851562 40.046875 31.03125 39.84375 31.222656 C 39.269531 31.753906 38.675781 31.855469 38.019531 31.519531 C 36.921875 30.957031 35.789062 31.933594 36.511719 32.832031 L 36.667969 33.019531 L 38.726562 33.019531 C 41.03125 33.019531 41.015625 33.023438 41.429688 32.417969 C 42.039062 31.535156 41.304688 30.457031 40.339844 30.824219 M 15.390625 36.347656 C 15.808594 36.515625 17.253906 36.835938 17.605469 36.835938 C 17.925781 36.835938 18.542969 36.453125 18.542969 36.25 C 18.542969 36.210938 17.75 36.179688 16.773438 36.183594 L 15.007812 36.1875 L 15.390625 36.347656 M 21.421875 36.351562 C 21.339844 36.449219 20.972656 36.746094 20.617188 37.015625 C 20.261719 37.285156 19.910156 37.550781 19.84375 37.605469 C 17.683594 39.351562 12.148438 40.019531 7.621094 39.085938 C 6.828125 38.925781 6.882812 38.800781 7.125 40.246094 C 7.367188 41.691406 7.230469 41.5 8.101562 41.636719 C 13.886719 42.558594 19.179688 41.488281 22.445312 38.726562 L 22.730469 38.488281 L 22.761719 37.453125 C 22.789062 36.203125 22.78125 36.179688 22.085938 36.179688 C 21.671875 36.179688 21.550781 36.210938 21.421875 36.351562 M 30.550781 36.234375 C 30.523438 36.265625 30.503906 36.753906 30.503906 37.320312 L 30.507812 38.355469 L 30.953125 38.726562 C 33.847656 41.121094 39.132812 42.65625 39.9375 41.324219 C 40.484375 40.421875 39.925781 39.535156 38.730469 39.417969 L 38.148438 39.363281 L 38.449219 39.121094 C 38.617188 38.992188 38.824219 38.792969 38.917969 38.683594 C 39.070312 38.5 39.101562 38.492188 39.445312 38.574219 C 41.367188 39.039062 44.125 38.367188 46.082031 36.957031 C 46.359375 36.757812 46.597656 36.617188 46.617188 36.636719 C 46.640625 36.65625 46.660156 36.628906 46.660156 36.570312 C 46.664062 36.511719 46.679688 36.414062 46.691406 36.34375 C 46.71875 36.238281 46.175781 36.21875 42.238281 36.199219 L 37.753906 36.179688 L 37.582031 36.460938 C 37.367188 36.804688 36.863281 37.273438 36.503906 37.457031 C 36.351562 37.535156 36.203125 37.636719 36.175781 37.691406 C 36.140625 37.742188 36.113281 37.75 36.113281 37.710938 C 36.109375 37.671875 36.027344 37.695312 35.921875 37.765625 C 35.484375 38.054688 34.53125 38.179688 34.191406 37.992188 C 33.808594 37.78125 33.5625 37.628906 33.507812 37.570312 C 33.484375 37.542969 33.292969 37.40625 33.082031 37.261719 C 32.871094 37.117188 32.492188 36.8125 32.238281 36.589844 C 31.785156 36.1875 30.800781 35.984375 30.550781 36.234375 M 154.742188 36.953125 C 155.683594 37.394531 155.847656 37.929688 155.816406 40.375 C 155.792969 42.160156 155.785156 42.226562 155.582031 42.625 C 154.898438 43.976562 153.015625 43.949219 152.308594 42.582031 L 152.078125 42.132812 L 152.105469 40.121094 C 152.128906 38.246094 152.144531 38.089844 152.304688 37.777344 C 152.792969 36.871094 153.824219 36.519531 154.742188 36.953125 M 25.847656 43.828125 C 25.820312 45.714844 25.816406 45.742188 25.597656 46.21875 C 25.441406 46.558594 25.375 46.835938 25.375 47.144531 L 25.375 47.585938 L 27.910156 47.585938 L 27.875 47.15625 C 27.855469 46.917969 27.734375 46.484375 27.605469 46.191406 C 27.375 45.660156 27.371094 45.640625 27.34375 43.792969 L 27.3125 41.921875 L 25.875 41.921875 L 25.847656 43.828125 M 11.496094 42.820312 C 11.171875 43.019531 11.0625 43.355469 11.0625 44.144531 C 11.0625 44.691406 11.039062 44.800781 10.898438 44.902344 C 10.8125 44.960938 10.761719 45.039062 10.789062 45.070312 C 10.875 45.15625 13.09375 45.132812 13.09375 45.046875 C 13.09375 45.003906 13.054688 44.867188 13.007812 44.742188 C 12.957031 44.609375 12.921875 44.257812 12.925781 43.953125 C 12.9375 42.878906 12.265625 42.347656 11.496094 42.820312 M 40.820312 44.738281 C 40.386719 45.03125 40.476562 45.082031 41.433594 45.105469 C 42.460938 45.132812 42.601562 45.066406 42.160156 44.765625 C 41.75 44.480469 41.210938 44.46875 40.820312 44.738281 "/>
<path style=" stroke:none;fill-rule:evenodd;fill:rgb(96.862745%,73.333333%,52.941176%);fill-opacity:1;" d="M 10.570312 33.0625 L 6.464844 33.105469 L 10.550781 33.128906 C 13.199219 33.140625 14.644531 33.117188 14.679688 33.0625 C 14.707031 33.015625 14.71875 32.992188 14.707031 33 C 14.691406 33.007812 12.832031 33.039062 10.570312 33.0625 M 37.84375 33.125 C 38.371094 33.140625 39.210938 33.140625 39.714844 33.125 C 40.214844 33.109375 39.78125 33.097656 38.753906 33.097656 C 37.726562 33.097656 37.316406 33.109375 37.84375 33.125 M 5.84375 33.914062 C 4.925781 34.25 4.273438 35.011719 4.105469 35.953125 C 4.050781 36.25 4.855469 41.402344 4.941406 41.3125 C 4.960938 41.292969 4.789062 40.148438 4.550781 38.757812 C 4.015625 35.589844 4.09375 35.082031 5.234375 34.316406 C 5.894531 33.867188 5.644531 33.878906 14.773438 33.902344 L 23.304688 33.925781 L 23.648438 34.113281 C 23.835938 34.214844 23.992188 34.277344 23.992188 34.257812 C 23.992188 34.234375 23.835938 34.128906 23.648438 34.027344 L 23.304688 33.84375 L 14.722656 33.824219 C 7.84375 33.808594 6.082031 33.828125 5.84375 33.914062 M 29.742188 33.960938 C 29.128906 34.207031 28.675781 34.632812 28.367188 35.257812 L 28.097656 35.808594 L 28.070312 37.390625 L 28.042969 38.96875 L 25.136719 38.96875 L 25.109375 37.453125 L 25.085938 35.933594 L 25.089844 37.472656 L 25.089844 39.011719 L 28.125 39.054688 L 28.15625 37.433594 C 28.183594 35.589844 28.289062 35.21875 28.921875 34.585938 C 29.640625 33.871094 28.851562 33.933594 38.550781 33.882812 L 47.128906 33.839844 L 38.632812 33.824219 C 30.492188 33.808594 30.117188 33.8125 29.742188 33.960938 M 47.667969 34.074219 C 47.6875 34.085938 47.847656 34.199219 48.023438 34.324219 L 48.351562 34.554688 L 48.070312 34.296875 C 47.914062 34.160156 47.75 34.046875 47.710938 34.046875 C 47.667969 34.046875 47.648438 34.058594 47.667969 34.074219 M 24.320312 34.582031 C 24.472656 34.742188 24.613281 34.867188 24.632812 34.867188 C 24.65625 34.867188 24.550781 34.742188 24.398438 34.582031 C 24.246094 34.425781 24.101562 34.292969 24.085938 34.292969 C 24.0625 34.292969 24.167969 34.425781 24.320312 34.582031 M 5.972656 35.71875 C 5.722656 35.96875 5.695312 36.046875 5.707031 36.398438 L 5.714844 36.796875 L 5.765625 36.386719 C 5.828125 35.890625 5.878906 35.804688 6.210938 35.597656 C 6.351562 35.515625 6.414062 35.441406 6.359375 35.441406 C 6.296875 35.441406 6.121094 35.566406 5.972656 35.71875 M 29.847656 35.871094 C 29.691406 36.132812 29.6875 36.28125 29.707031 40.691406 L 29.726562 45.246094 L 29.765625 40.648438 C 29.804688 36.425781 29.820312 36.03125 29.953125 35.828125 C 30.03125 35.703125 30.078125 35.605469 30.050781 35.605469 C 30.027344 35.605469 29.9375 35.726562 29.847656 35.871094 M 25.085938 41.207031 C 25.0625 41.265625 25.058594 42.230469 25.070312 43.359375 L 25.09375 45.410156 L 25.132812 41.1875 L 28.058594 41.1875 L 28.058594 43.136719 C 28.058594 45.574219 28.21875 46.269531 28.921875 46.847656 C 28.996094 46.917969 28.914062 46.773438 28.734375 46.53125 C 28.214844 45.839844 28.195312 45.734375 28.164062 43.300781 L 28.128906 41.105469 L 26.625 41.105469 C 25.492188 41.105469 25.117188 41.128906 25.085938 41.207031 M 5.554688 45.121094 C 5.554688 45.328125 5.570312 45.40625 5.585938 45.308594 C 5.605469 45.207031 5.605469 45.042969 5.585938 44.9375 C 5.570312 44.835938 5.554688 44.921875 5.554688 45.121094 M 46.042969 44.929688 C 46.035156 45.03125 46.011719 45.179688 45.988281 45.257812 C 45.941406 45.40625 45.945312 45.40625 46.03125 45.261719 C 46.082031 45.183594 46.109375 45.039062 46.089844 44.933594 C 46.054688 44.757812 46.054688 44.757812 46.042969 44.929688 M 11.570312 45.921875 C 13.613281 45.933594 16.964844 45.933594 19.011719 45.921875 C 21.058594 45.910156 19.382812 45.898438 15.292969 45.898438 C 11.199219 45.898438 9.523438 45.910156 11.570312 45.921875 M 34.179688 45.921875 C 36.226562 45.933594 39.574219 45.933594 41.621094 45.921875 C 43.667969 45.910156 41.992188 45.898438 37.898438 45.898438 C 33.808594 45.898438 32.132812 45.910156 34.179688 45.921875 M 6.261719 46.722656 C 6.414062 46.878906 6.554688 47.007812 6.578125 47.007812 C 6.601562 47.007812 6.496094 46.878906 6.34375 46.722656 C 6.191406 46.566406 6.050781 46.4375 6.027344 46.4375 C 6.003906 46.4375 6.109375 46.566406 6.261719 46.722656 "/>
<path style=" stroke:none;fill-rule:evenodd;fill:rgb(53.333333%,52.156863%,52.156863%);fill-opacity:1;" d="M 5.816406 33.148438 C 5.710938 33.191406 5.796875 33.199219 6.058594 33.167969 C 6.28125 33.144531 6.480469 33.109375 6.5 33.09375 C 6.570312 33.03125 5.972656 33.078125 5.816406 33.148438 M 46.824219 33.121094 C 46.929688 33.140625 47.078125 33.140625 47.152344 33.121094 C 47.230469 33.097656 47.148438 33.082031 46.96875 33.085938 C 46.789062 33.085938 46.726562 33.101562 46.824219 33.121094 M 47.675781 33.304688 C 47.882812 33.386719 48.195312 33.535156 48.367188 33.636719 C 48.542969 33.738281 48.609375 33.757812 48.515625 33.675781 C 48.300781 33.496094 47.574219 33.148438 47.417969 33.152344 C 47.347656 33.152344 47.46875 33.21875 47.675781 33.304688 M 29.152344 33.417969 C 28.503906 33.773438 27.652344 34.65625 27.652344 34.972656 C 27.652344 35.015625 27.78125 34.851562 27.941406 34.609375 C 28.285156 34.089844 28.613281 33.789062 29.136719 33.507812 C 29.351562 33.398438 29.523438 33.289062 29.523438 33.269531 C 29.523438 33.210938 29.523438 33.210938 29.152344 33.417969 M 24.359375 33.613281 C 24.621094 33.882812 25.148438 34.300781 24.96875 34.101562 C 24.859375 33.96875 24.65625 33.792969 24.519531 33.699219 C 24.386719 33.605469 24.3125 33.566406 24.359375 33.613281 M 27.5 35.371094 C 27.449219 35.515625 27.410156 35.691406 27.414062 35.761719 C 27.417969 35.835938 27.472656 35.726562 27.53125 35.527344 C 27.660156 35.105469 27.636719 34.976562 27.5 35.371094 M 3.359375 36.222656 C 3.359375 36.535156 3.375 36.660156 3.394531 36.488281 C 3.410156 36.316406 3.410156 36.058594 3.394531 35.910156 C 3.375 35.765625 3.359375 35.90625 3.359375 36.222656 M 25.816406 37.042969 L 25.820312 38.273438 L 27.371094 38.273438 L 27.371094 37.125 L 27.375 35.976562 L 27.351562 37.105469 L 27.324219 38.234375 L 25.867188 38.234375 L 25.839844 37.019531 L 25.8125 35.8125 L 25.816406 37.042969 M 30.453125 36.289062 C 30.429688 36.347656 30.421875 36.800781 30.433594 37.296875 L 30.460938 38.191406 L 30.5 37.183594 C 30.539062 36.191406 30.535156 36.078125 30.453125 36.289062 M 25.816406 41.941406 C 25.796875 42.003906 25.789062 42.828125 25.804688 43.773438 L 25.824219 45.492188 L 25.863281 41.921875 L 27.324219 41.921875 L 27.347656 43.648438 L 27.375 45.371094 L 27.371094 43.628906 L 27.371094 41.882812 L 26.613281 41.859375 C 26.050781 41.839844 25.847656 41.863281 25.816406 41.941406 M 10.707031 45.144531 C 10.726562 45.179688 11.28125 45.199219 11.941406 45.191406 C 13.242188 45.175781 13.105469 45.140625 11.621094 45.101562 C 11.097656 45.089844 10.6875 45.109375 10.707031 45.144531 M 40.503906 45.144531 C 40.503906 45.179688 40.941406 45.207031 41.476562 45.207031 C 42.015625 45.207031 42.457031 45.179688 42.457031 45.144531 C 42.457031 45.109375 42.015625 45.085938 41.476562 45.085938 C 40.941406 45.085938 40.503906 45.109375 40.503906 45.144531 M 5.042969 46.273438 C 5.132812 46.453125 5.226562 46.601562 5.25 46.601562 C 5.273438 46.601562 5.214844 46.453125 5.125 46.273438 C 5.035156 46.089844 4.9375 45.945312 4.917969 45.945312 C 4.894531 45.945312 4.949219 46.089844 5.042969 46.273438 M 27.578125 46.148438 C 27.578125 46.195312 27.628906 46.324219 27.691406 46.4375 C 27.757812 46.546875 27.808594 46.605469 27.808594 46.558594 C 27.808594 46.515625 27.757812 46.382812 27.691406 46.273438 C 27.628906 46.160156 27.578125 46.101562 27.578125 46.148438 M 5.449219 46.953125 C 5.449219 46.96875 5.570312 47.089844 5.710938 47.21875 L 5.976562 47.464844 L 5.738281 47.195312 C 5.515625 46.949219 5.449219 46.890625 5.449219 46.953125 "/>
</g>
</svg>
