<?xml version="1.0" encoding="UTF-8" standalone="no"?>
<!DOCTYPE svg PUBLIC "-//W3C//DTD SVG 1.1//EN" "http://www.w3.org/Graphics/SVG/1.1/DTD/svg11.dtd">
<svg width="100%" height="100%" viewBox="0 0 51 32" version="1.1" xmlns="http://www.w3.org/2000/svg" xmlns:xlink="http://www.w3.org/1999/xlink" xml:space="preserve" xmlns:serif="http://www.serif.com/" style="fill-rule:evenodd;clip-rule:evenodd;stroke-linejoin:round;stroke-miterlimit:2;">
    <path d="M27.227,0C23.467,0 20.32,3.06 20.32,6.907L20.32,9.792C20.32,10.754 21.019,11.454 21.894,11.629L21.894,13.733C21.894,14.599 22.596,15.301 23.462,15.301L24.517,15.301L24.517,16.525L18.921,18.099C17.872,18.449 17.085,19.323 16.998,20.459L16.998,20.547L16.561,25.968L17.697,25.968L17.697,31.826L18.747,31.826L18.747,25.969L20.321,25.969L20.321,31.827L21.371,31.827L21.371,23.084C21.371,21.597 21.109,20.198 20.497,18.887L24.519,17.75L24.519,18.63C24.519,19.496 25.221,20.198 26.087,20.198L28.197,20.198C29.063,20.198 29.764,19.496 29.764,18.631L29.764,17.75L31.25,18.187L31.25,17.05L29.676,16.613L29.676,15.389L30.732,15.389C31.598,15.389 32.299,14.687 32.299,13.822L32.299,11.717C33.085,11.629 33.785,10.93 33.873,10.143L33.873,6.908C34.047,3.061 30.987,0.001 27.228,0.001L27.227,0ZM5.109,26.401L5.544,25.008L5.806,24.134L4.844,23.784L4.406,25.008L1.784,25.008L2.134,20.724C2.222,20.024 2.659,19.5 3.27,19.238L6.768,18.188L7.468,19.062C7.818,19.5 7.992,20.024 7.992,20.636L7.992,31.652L9.042,31.652L9.042,30.428L9.304,30.254C10.528,29.555 11.839,29.118 13.238,29.03L13.238,31.653L14.287,31.653L14.287,20.723C14.287,20.198 14.462,19.586 14.812,19.149L15.511,18.275L16.823,18.625C17.085,18.275 17.347,18.013 17.609,17.751L15.773,17.226L16.123,17.052C17.609,16.352 18.571,14.954 18.921,13.292L19.183,11.543C19.445,9.969 19.358,8.483 19.096,6.909L19.096,6.907C18.397,3.06 15.074,0.349 11.14,0.349C7.206,0.349 3.883,3.147 3.183,6.907C2.921,8.393 2.921,9.967 3.183,11.541L3.445,13.29C3.707,14.864 4.757,16.263 6.155,17.05L6.505,17.224L2.921,18.274C1.871,18.624 1.172,19.498 1.084,20.547L0.647,25.969L1.695,25.969L1.695,31.739L2.745,31.739L2.745,25.969L4.144,25.969L4.144,26.057C3.968,26.668 3.968,27.368 4.144,28.067L4.406,28.854C4.756,29.816 4.844,30.777 4.844,31.739L5.893,31.739C5.893,30.69 5.719,29.553 5.369,28.505L5.107,27.718C5.024,27.524 4.976,27.299 4.976,27.062C4.976,26.827 5.023,26.604 5.109,26.401ZM48.998,17.662L48.998,17.661L35.007,17.661C34.09,17.661 33.347,18.404 33.347,19.321L33.347,27.979C33.347,28.853 34.046,29.64 35.009,29.64L39.905,29.64L39.905,30.602L38.855,30.602L38.855,31.652L45.237,31.652L45.237,30.602L44.188,30.602L44.188,29.554L49.086,29.554C50.003,29.554 50.746,28.811 50.746,27.894L50.746,19.236C50.666,18.351 49.927,17.662 49.028,17.662L48.998,17.662ZM40.954,30.601L40.954,25.705C40.954,25.443 41.216,25.18 41.479,25.18L42.529,25.18C42.791,25.18 43.053,25.442 43.053,25.705L43.053,30.601L40.954,30.601ZM12.474,21.761L13.149,21.508L13.149,28.066L13.238,28.066C11.752,28.154 10.352,28.591 9.041,29.29L9.041,21.508L9.74,21.77C10.141,21.936 10.607,22.032 11.095,22.032C11.583,22.032 12.049,21.936 12.474,21.761ZM49.61,27.89C49.61,28.152 49.348,28.415 49.085,28.415L44.189,28.415L44.189,25.704C44.189,24.787 43.446,24.044 42.529,24.044L41.477,24.044C40.56,24.044 39.817,24.787 39.817,25.704L39.817,28.415L34.921,28.415C34.659,28.415 34.396,28.153 34.396,27.89L34.396,19.234C34.396,18.972 34.658,18.71 34.92,18.71L48.997,18.71C49.259,18.71 49.522,18.972 49.522,19.235L49.522,27.891L49.61,27.89ZM31.336,23.256L31.424,23.256L31.424,26.404L30.725,26.842C30.55,26.93 30.287,26.93 30.113,26.842L28.539,25.792L28.536,25.791C28.381,25.711 28.276,25.55 28.276,25.364L28.276,22.732C28.276,22.47 28.539,22.208 28.801,22.208L31.336,22.208L31.336,23.256ZM5.109,26.401L5.107,26.406L5.111,26.395L5.109,26.401ZM31.336,23.257L29.325,23.257L29.325,25.093L30.374,25.792L31.336,25.152L31.336,23.257ZM20.32,24.83L17.697,24.83L18.047,20.546C18.134,19.847 18.571,19.322 19.271,19.147L19.533,19.06C20.058,20.284 20.32,21.596 20.32,22.907L20.32,24.83ZM12.474,21.761L12.45,21.77L12.474,21.761ZM13.938,18.535C13.5,19.06 13.326,19.672 13.239,20.372L12.102,20.809C11.818,20.933 11.488,21.006 11.14,21.006C10.792,21.006 10.462,20.934 10.162,20.803L10.178,20.809L9.042,20.372C8.949,19.678 8.7,19.055 8.333,18.521L8.342,18.535L7.905,17.923L8.43,17.749C9.129,17.574 9.566,16.962 9.566,16.263L9.566,15.476L12.714,15.476L12.714,16.263C12.714,16.962 13.151,17.575 13.85,17.749L14.375,17.923L13.938,18.535ZM28.801,18.535C28.801,18.797 28.539,19.06 28.276,19.06L26.178,19.06C25.916,19.06 25.654,18.798 25.654,18.535L25.654,15.388L28.8,15.388L28.8,18.535L28.801,18.535ZM15.162,16.962L14.2,16.788C13.938,16.7 13.85,16.526 13.85,16.263L13.85,15.476L14.636,15.476L15.686,17.138L15.161,16.963L15.162,16.962ZM7.206,17.05L6.681,17.137L7.73,15.475L8.517,15.475L8.517,16.262C8.517,16.524 8.342,16.699 8.167,16.787L7.205,17.049L7.206,17.05ZM18.134,11.366L17.872,13.114C17.697,14.251 16.998,15.212 16.123,15.825L15.686,15.213C16.123,14.951 16.472,14.426 16.472,13.901L16.472,12.327C16.472,12.152 16.385,11.89 16.122,11.89C13.849,10.928 12.013,9.179 10.789,7.081L10.089,5.857C10.008,5.7 9.847,5.595 9.661,5.595L9.642,5.595C9.456,5.595 9.295,5.7 9.215,5.854L9.214,5.857L8.34,7.169L6.417,7.169C6.155,7.169 5.892,7.343 5.892,7.694L5.892,8.218C5.193,8.306 4.581,8.83 4.406,9.617C4.319,10.142 4.406,10.666 4.668,11.103C4.93,11.54 5.368,11.802 5.892,11.889L5.892,13.987C5.892,14.512 6.154,15.037 6.679,15.299L6.241,15.911C5.279,15.299 4.667,14.337 4.493,13.201L4.143,11.365C3.881,9.966 3.967,8.567 4.23,7.168C4.842,3.846 7.727,1.398 11.137,1.398C14.547,1.398 17.432,3.846 18.044,7.168C18.306,8.48 18.306,9.966 18.131,11.365L18.134,11.366ZM11.14,12.328L11.14,11.454C11.49,11.017 11.664,10.58 11.664,9.968C12.673,11.067 13.895,11.953 15.267,12.564L15.336,12.592L15.336,13.816C15.336,14.078 15.074,14.341 14.812,14.341L7.468,14.341C7.206,14.341 6.943,14.079 6.943,13.816L6.943,8.22L8.517,8.22C8.692,8.22 8.867,8.133 8.954,7.958L9.479,7.084L9.741,7.521C10.178,8.308 10.703,9.007 11.315,9.707L10.616,9.707L10.616,10.057C10.616,10.407 10.441,10.757 10.266,10.931L10.091,11.106L10.091,12.33L11.141,12.33L11.14,12.328ZM31.424,13.727C31.424,13.989 31.162,14.251 30.899,14.251L23.467,14.251C23.205,14.251 22.943,13.989 22.943,13.727L22.943,8.218C23.555,8.48 24.079,8.656 24.692,8.743C24.604,9.005 24.516,9.268 24.516,9.53C24.516,10.142 24.779,10.579 25.042,10.579C25.305,10.579 25.566,10.142 25.566,9.53C25.566,9.355 25.566,9.092 25.479,8.918C25.917,9.005 26.441,9.005 26.878,9.005L27.84,9.005L27.49,7.431C28.714,8.043 30.026,8.567 31.424,8.917L31.424,13.727ZM27.227,12.24L27.227,12.154L26.177,12.154L26.177,12.24L27.227,12.24ZM27.227,11.279L27.227,11.278C27.553,10.875 27.751,10.357 27.752,9.792L27.752,9.53L26.702,9.53L26.702,9.88C26.702,10.23 26.528,10.579 26.352,10.754L26.177,10.928L26.177,12.153L27.227,12.153L27.227,11.366C27.553,10.963 27.751,10.445 27.752,9.88L27.752,9.793C27.751,10.358 27.553,10.876 27.227,11.279ZM9.566,9.792C9.566,9.18 9.304,8.743 9.042,8.743C8.78,8.743 8.517,9.18 8.517,9.792C8.517,10.404 8.779,10.842 9.042,10.842C9.305,10.842 9.566,10.317 9.566,9.792ZM5.894,9.268L5.894,10.754C5.718,10.666 5.631,10.579 5.544,10.492C5.37,10.317 5.37,10.054 5.37,9.793C5.457,9.531 5.72,9.355 5.894,9.268ZM21.894,10.492C21.544,10.404 21.37,10.054 21.37,9.705C21.37,9.356 21.544,9.093 21.894,8.919L21.894,10.492ZM32.473,10.492L32.473,9.006C32.823,9.094 32.998,9.443 32.998,9.792C32.998,10.141 32.824,10.404 32.473,10.492ZM27.752,9.443L27.752,9.442L26.702,9.442L26.702,9.443L27.752,9.443ZM32.998,8.131C32.736,8.043 32.473,7.956 32.211,7.956L32.037,7.956C30.375,7.606 28.715,6.994 27.315,6.12L25.917,5.246L26.616,7.956C25.304,7.869 23.993,7.519 22.769,6.994L21.983,6.644L21.983,8.043C21.808,8.043 21.633,8.13 21.458,8.217L21.458,6.905C21.497,3.699 24.105,1.115 27.316,1.115C30.527,1.115 33.135,3.699 33.174,6.901L33.174,8.129L32.999,8.129L32.998,8.131ZM26.177,10.842L26.352,10.667C26.528,10.492 26.702,10.143 26.702,9.793L26.702,9.792C26.702,10.142 26.528,10.492 26.352,10.666L26.177,10.841L26.177,10.842ZM29.044,10.41L29.054,10.422C29.136,10.523 29.231,10.579 29.325,10.579L29.326,10.579C29.588,10.579 29.851,10.142 29.851,9.53L29.851,9.53C29.851,8.918 29.589,8.48 29.326,8.48C29.063,8.48 28.8,8.917 28.8,9.53C28.8,9.913 28.903,10.228 29.044,10.41Z" style="fill:rgb(237,127,45);fill-rule:nonzero;"/>
</svg>
