<?xml version="1.0" encoding="UTF-8" standalone="no"?>
<!DOCTYPE svg PUBLIC "-//W3C//DTD SVG 1.1//EN" "http://www.w3.org/Graphics/SVG/1.1/DTD/svg11.dtd">
<svg width="100%" height="100%" viewBox="0 0 50 32" version="1.1" xmlns="http://www.w3.org/2000/svg" xmlns:xlink="http://www.w3.org/1999/xlink" xml:space="preserve" xmlns:serif="http://www.serif.com/" style="fill-rule:evenodd;clip-rule:evenodd;stroke-linejoin:round;stroke-miterlimit:2;">
    <path d="M4.466,26.441L4.727,25.57L5.254,24.082L4.203,23.732L3.766,24.958L1.137,24.958L1.487,20.667C1.487,20.142 1.838,19.704 2.276,19.441C2.363,19.79 2.451,20.141 2.625,20.404C3.064,21.455 3.851,22.418 4.727,23.207L6.654,24.783C6.829,24.958 7.091,24.958 7.267,24.87C7.443,24.783 7.53,24.521 7.53,24.256L6.829,21.543C6.567,20.579 6.48,19.528 6.48,18.565C6.48,18.39 6.48,18.215 6.567,18.127L8.581,17.514L12.696,17.514L16.024,18.477C16.286,18.127 16.549,17.863 16.9,17.601L15.849,17.339C17.162,16.9 17.951,15.675 18.038,14.361L18.038,7.531C17.952,3.414 14.71,0.174 10.595,0.174L10.595,0.175C6.48,0.175 3.239,3.503 3.239,7.532L3.239,13.748C3.239,14.449 3.064,15.149 2.802,15.762C2.363,16.55 2.188,17.425 2.188,18.301C1.225,18.652 0.611,19.527 0.523,20.578L-0.001,26.008L1.137,26.008L1.137,31.787L2.188,31.787L2.188,26.008L3.502,26.008L3.502,26.095C3.418,26.397 3.37,26.744 3.37,27.102C3.37,27.461 3.418,27.808 3.508,28.137L3.503,28.11L3.765,28.986C4.115,29.949 4.203,30.912 4.203,31.875L5.254,31.875C5.254,30.737 5.079,29.686 4.727,28.635L4.465,27.759C4.382,27.565 4.334,27.339 4.334,27.102C4.334,26.868 4.382,26.644 4.466,26.441ZM26.445,0.002L26.445,0L26.401,0C22.655,0.024 19.527,3.08 19.527,6.918L19.527,9.807C19.527,10.771 20.227,11.471 21.103,11.647L21.103,13.748C21.103,14.617 21.793,15.313 22.659,15.324L22.679,15.324L23.73,15.324L23.73,16.55L18.126,18.127C17.075,18.389 16.287,19.352 16.199,20.491L15.849,25.394C15.849,25.57 15.849,25.657 16.024,25.833C16.108,25.918 16.275,26.002 16.366,26.007L16.374,26.008L16.9,26.008L16.9,31.874L17.951,31.874L17.951,26.008L19.526,26.008L19.526,31.874L20.577,31.874L20.577,30.299L30.648,30.299L30.648,29.248L20.577,29.248L20.577,26.623L30.648,26.623L30.648,25.397L20.577,25.397L20.577,23.821L19.526,23.821L19.526,24.872L16.899,24.872L17.074,22.245L30.647,22.245L30.647,21.194L17.248,21.194L17.337,20.58C17.424,19.967 17.862,19.354 18.475,19.179L24.167,17.604L24.517,17.954C24.605,18.041 24.693,18.041 24.693,18.129L24.78,18.217C24.824,18.217 24.846,18.239 24.868,18.262C24.89,18.283 24.912,18.304 24.955,18.304C24.955,18.304 25.043,18.304 25.043,18.392C25.131,18.392 25.218,18.479 25.218,18.479C25.218,18.479 25.305,18.479 25.305,18.567C25.382,18.567 25.459,18.634 25.477,18.651L25.481,18.655L25.569,18.655C25.656,18.655 25.744,18.655 25.831,18.742L26.707,18.742L26.74,18.742C26.816,18.741 26.893,18.732 26.969,18.655L27.057,18.655L27.065,18.655C27.15,18.65 27.232,18.568 27.232,18.568C27.232,18.568 27.32,18.568 27.32,18.48C27.407,18.48 27.495,18.393 27.495,18.393C27.495,18.393 27.582,18.393 27.582,18.305C27.67,18.305 27.758,18.218 27.758,18.218L27.845,18.13C27.933,18.042 28.02,18.042 28.02,17.955C28.02,17.955 28.108,17.955 28.108,17.867L28.371,17.604L30.298,18.129L30.298,16.99L28.634,16.553L28.634,15.327L29.693,15.327L29.713,15.327C30.571,15.316 31.263,14.618 31.263,13.758L31.263,11.649C32.051,11.562 32.751,10.86 32.838,10.073L32.838,6.92C33.275,3.067 30.21,0.002 26.445,0.002ZM48.25,17.688L34.15,17.688C33.232,17.688 32.487,18.433 32.487,19.351L32.487,28.022C32.487,28.898 33.188,29.685 34.15,29.685L39.054,29.685L39.054,30.736L38.003,30.736L38.003,31.787L44.483,31.787L44.483,30.736L43.432,30.736L43.432,29.685L48.337,29.685C49.255,29.685 50,28.941 50,28.022L50,19.35C49.913,18.475 49.124,17.687 48.249,17.687L48.25,17.688ZM40.631,25.306L41.682,25.306C41.944,25.306 42.206,25.569 42.206,25.832L42.206,30.735L40.105,30.735L40.105,25.832C40.105,25.57 40.368,25.306 40.631,25.306ZM12.959,30.649L13.486,29.773L13.135,29.51C11.559,28.547 9.807,28.109 7.968,28.109L7.968,29.16C9.631,29.16 11.208,29.598 12.609,30.473L12.959,30.649ZM48.775,28.022C48.775,28.284 48.512,28.547 48.249,28.547L43.346,28.547L43.346,25.831C43.346,24.913 42.602,24.168 41.683,24.168L40.629,24.168C39.711,24.168 38.966,24.912 38.966,25.831L38.966,28.548L34.15,28.548C33.887,28.548 33.624,28.285 33.624,28.022L33.624,19.352C33.624,19.09 33.886,18.828 34.149,18.828L48.248,18.828C48.51,18.828 48.773,19.09 48.773,19.352L48.773,28.022L48.775,28.022ZM4.466,26.441L4.465,26.446L4.469,26.435L4.466,26.441ZM7.443,16.463C6.305,16.463 5.342,17.426 5.342,18.565C5.342,19.616 5.517,20.754 5.779,21.805L6.043,22.943L5.43,22.417C4.641,21.717 4.029,20.929 3.678,19.965C3.153,18.739 3.153,17.338 3.766,16.2C4.116,15.412 4.38,14.537 4.38,13.748L4.38,11.209C4.642,11.471 5.08,11.646 5.431,11.733L5.431,13.835C5.431,14.711 6.131,15.412 7.006,15.412L7.533,15.412L7.533,16.463L7.443,16.463ZM28.022,15.413L28.022,16.726C27.946,16.879 27.869,16.965 27.793,17.043L27.76,17.076L27.672,17.076C27.587,17.16 27.502,17.246 27.338,17.251L27.322,17.251L27.234,17.251C27.146,17.339 26.971,17.339 26.884,17.426C26.76,17.467 26.618,17.489 26.474,17.492L26.445,17.492C26.292,17.492 26.139,17.47 26.008,17.426C25.833,17.426 25.746,17.339 25.658,17.251L25.571,17.251L25.562,17.243C25.472,17.159 25.305,17.077 25.219,17.077L25.132,17.077L24.869,16.813L24.869,15.413L28.022,15.413ZM16.901,14.362C16.901,15.5 15.937,16.463 14.799,16.463L13.748,16.463L13.748,15.412L14.28,15.412C15.148,15.412 15.85,14.709 15.85,13.842L15.85,11.733C16.287,11.646 16.639,11.471 16.901,11.208L16.901,14.362ZM12.697,16.463L8.493,16.463L8.493,15.412L12.697,15.412L12.697,16.463ZM10.595,8.056C12.084,8.056 13.486,7.618 14.799,6.918L14.799,13.835C14.799,14.099 14.536,14.362 14.272,14.362L6.917,14.362C6.654,14.362 6.392,14.1 6.392,13.835L6.392,8.056C7.705,7.969 8.931,7.442 9.982,6.655L10.157,6.568L10.157,7.619C10.07,7.794 10.332,8.056 10.595,8.056ZM30.648,13.749L30.649,13.748C30.649,14.006 30.395,14.265 30.136,14.273L30.124,14.273L22.68,14.273C22.418,14.273 22.155,14.011 22.155,13.749L22.155,7.97L22.504,7.97L22.594,7.969C24.489,7.959 26.297,7.608 28.021,6.919L30.648,7.795L30.648,13.749ZM11.647,11.033L11.647,12.259L10.596,12.259L10.596,11.383C10.269,10.979 10.072,10.46 10.072,9.895L10.072,9.632L11.122,9.632L11.122,9.895C11.122,10.244 11.297,10.596 11.472,10.771L11.647,11.033ZM25.833,9.808C25.833,10.158 25.658,10.509 25.483,10.684L25.307,10.859L25.307,12.172L26.358,12.172L26.358,11.296C26.708,10.858 26.884,10.333 26.884,9.808L26.884,9.457L25.833,9.457L25.833,9.808ZM15.85,10.684L15.85,9.194C16.112,9.282 16.287,9.545 16.375,9.808C16.463,10.158 16.2,10.509 15.85,10.684ZM13.223,9.632C13.223,10.246 12.96,10.683 12.697,10.683C12.434,10.683 12.171,10.245 12.171,9.632C12.171,9.02 12.434,8.582 12.697,8.582C12.96,8.582 13.222,9.02 13.222,9.632L13.223,9.632ZM9.02,9.632C9.02,10.246 8.757,10.683 8.494,10.683C8.231,10.683 7.968,10.245 7.968,9.632C7.968,9.02 8.231,8.582 8.494,8.582C8.757,8.582 9.019,9.02 9.019,9.632L9.02,9.632ZM24.781,9.545C24.781,8.932 24.519,8.494 24.256,8.494C23.994,8.494 23.73,8.931 23.73,9.545C23.73,10.158 23.992,10.596 24.255,10.596C24.606,10.596 24.782,10.159 24.782,9.545L24.781,9.545ZM29.072,9.545C29.072,8.932 28.81,8.494 28.547,8.494C28.283,8.494 28.021,8.931 28.021,9.545C28.021,10.158 28.283,10.596 28.546,10.596C28.808,10.596 29.072,10.159 29.072,9.545ZM4.992,9.37C5.079,9.283 5.166,9.195 5.341,9.108L5.341,10.596C5.09,10.518 4.895,10.323 4.819,10.077L4.817,10.072C4.729,9.896 4.817,9.632 4.992,9.37ZM31.7,9.02L31.716,9.024C32.055,9.118 32.224,9.462 32.224,9.808C32.224,10.152 32.055,10.412 31.716,10.504L31.7,10.509L31.7,9.02ZM21.104,10.508C20.754,10.42 20.579,10.071 20.579,9.807C20.579,9.457 20.754,9.193 21.104,9.019L21.104,10.508ZM16.901,8.669C16.639,8.407 16.2,8.232 15.85,8.143L15.85,5.954C15.85,5.779 15.762,5.604 15.588,5.517C15.413,5.43 15.237,5.429 15.061,5.604C13.923,6.48 12.61,6.918 11.121,7.092L11.121,5.429C11.121,5.254 11.034,5.079 10.858,4.992C10.682,4.904 10.42,4.903 10.333,5.079L9.369,5.867C8.318,6.568 7.092,7.005 5.867,7.005C5.517,7.005 5.341,7.267 5.341,7.53L5.341,8.056C4.903,8.143 4.552,8.318 4.29,8.582L4.29,7.504C4.29,4.037 7.101,1.226 10.568,1.226L10.623,1.226C14.09,1.226 16.901,4.037 16.901,7.504L16.901,8.669ZM32.313,6.919L32.313,8.144L32.226,8.144L32.224,8.143C32.049,8.056 31.874,7.969 31.7,7.969L31.7,7.004L28.022,5.778L27.847,5.866C26.21,6.555 24.402,6.906 22.591,6.916L22.505,6.917L21.105,6.917L21.105,7.968C20.952,7.968 20.799,8.035 20.646,8.11L20.58,8.142L20.58,6.919C20.58,3.678 23.207,1.139 26.447,1.052C29.687,1.052 32.226,3.679 32.313,6.919Z" style="fill:rgb(237,127,45);fill-rule:nonzero;"/>
</svg>
