<?xml version="1.0" encoding="UTF-8" standalone="no"?>
<!DOCTYPE svg PUBLIC "-//W3C//DTD SVG 1.1//EN" "http://www.w3.org/Graphics/SVG/1.1/DTD/svg11.dtd">
<svg width="100%" height="100%" viewBox="0 0 53 32" version="1.1" xmlns="http://www.w3.org/2000/svg" xmlns:xlink="http://www.w3.org/1999/xlink" xml:space="preserve" xmlns:serif="http://www.serif.com/" style="fill-rule:evenodd;clip-rule:evenodd;stroke-linejoin:round;stroke-miterlimit:2;">
    <path d="M5.547,29.01L5.547,29.094C5.811,30.064 5.988,31.033 5.988,32.091L7.046,32.003C7.046,31.827 7.046,31.651 6.958,31.474C6.958,30.68 6.782,29.887 6.518,29.094C6.518,29.006 6.43,28.83 6.43,28.741L6.43,28.653C6.304,28.23 6.232,27.745 6.232,27.243C6.232,26.741 6.304,26.255 6.439,25.796L6.43,25.832C6.518,25.656 6.43,25.479 6.341,25.391C6.253,25.215 6.077,25.215 5.9,25.215L2.991,25.215L3.343,20.895C3.343,20.542 3.519,20.189 3.784,19.925L17.184,19.925C17.36,19.484 17.536,19.131 17.801,18.867L6.694,18.867L9.691,17.985C10.397,17.809 10.837,17.192 10.837,16.487L10.837,15.693L14.011,15.693L14.011,16.487C14.011,17.193 14.451,17.809 15.157,17.985L17.802,18.779C18.154,18.427 18.508,18.162 18.86,17.985L15.422,17.015C15.158,16.927 15.069,16.751 15.069,16.487L15.069,15.693L16.134,15.693C17.007,15.693 17.714,14.986 17.714,14.113L17.714,11.99C18.331,11.902 18.948,11.462 19.212,10.844C19.476,10.226 19.388,9.522 18.948,8.993C18.683,8.64 18.242,8.375 17.714,8.287L17.714,7.582C17.714,7.318 17.45,7.052 17.185,7.052C15.876,7.046 14.676,6.581 13.737,5.811L13.747,5.819L12.777,5.025C12.601,4.937 12.425,4.849 12.248,4.937C12.071,5.025 11.984,5.201 11.984,5.377L11.984,7.053C10.482,6.949 9.124,6.406 8.016,5.554C7.84,5.466 7.664,5.378 7.488,5.466C7.312,5.554 7.135,5.73 7.135,5.995L7.135,8.111L6.871,8.111C6.694,8.111 6.517,8.199 6.429,8.287C5.635,8.816 5.371,9.785 5.724,10.579C5.988,11.197 6.517,11.637 7.222,11.725L7.222,13.84C7.222,14.722 7.927,15.427 8.808,15.427L9.866,15.427L9.866,16.221C9.866,16.485 9.69,16.661 9.513,16.749L4.311,18.248C3.959,18.336 3.518,18.6 3.253,18.865C2.989,19.041 2.724,19.218 2.636,19.483C1.842,19.042 1.314,18.161 1.49,17.279C1.666,16.397 2.284,15.692 3.253,15.516C3.429,15.516 3.605,15.34 3.694,15.075C3.694,14.899 3.694,14.635 3.518,14.546C2.724,14.017 2.46,13.048 2.724,12.166C2.987,11.292 3.785,10.667 4.729,10.667L4.752,10.667C5.017,10.667 5.282,10.403 5.282,10.139L5.282,8.64C5.282,4.585 8.632,1.235 12.687,1.235C16.83,1.235 20.092,4.585 20.092,8.64L20.092,10.226C20.092,10.491 20.356,10.756 20.621,10.756C20.797,10.756 20.973,10.756 21.15,10.844C20.886,10.403 20.886,10.05 20.974,9.698L20.975,9.697L20.975,8.64C20.975,3.967 17.184,0.176 12.512,0.176C7.84,0.176 4.05,3.968 4.05,8.64L4.05,9.698C2.992,9.874 2.022,10.668 1.581,11.638C1.141,12.784 1.317,13.929 2.022,14.811C0.876,15.341 0.26,16.574 0.26,17.809C0.348,19.043 1.142,20.189 2.287,20.63L1.847,25.567C1.847,25.743 1.847,25.831 2.023,26.008C2.111,26.096 2.287,26.184 2.375,26.184L2.904,26.184L2.904,32.002L3.962,32.002L3.962,26.184L5.372,26.184C5.314,26.498 5.281,26.859 5.281,27.228C5.281,27.848 5.374,28.447 5.547,29.01ZM50.418,17.719L36.224,17.719C35.3,17.719 34.55,18.468 34.55,19.393L34.55,28.122C34.55,29.004 35.256,29.796 36.225,29.796L41.161,29.796L41.161,30.854L40.104,30.854L40.104,31.912L46.627,31.912L46.627,30.854L45.569,30.854L45.569,29.796L50.507,29.796C51.431,29.796 52.181,29.047 52.181,28.122L52.181,19.393C52.093,18.512 51.299,17.719 50.418,17.719ZM27.666,-0.087L27.588,-0.087L27.058,-0.087C25.383,-0.087 23.708,0.707 22.65,2.029C21.592,3.351 21.152,5.114 21.504,6.789L21.945,8.552C21.688,8.858 21.531,9.256 21.531,9.69C21.531,9.948 21.586,10.193 21.685,10.414L21.68,10.403C21.944,11.02 22.473,11.461 23.178,11.549L23.178,13.665C23.178,14.547 23.883,15.251 24.764,15.251L25.822,15.251L25.822,16.045C25.822,16.309 25.646,16.486 25.47,16.574L21.591,17.721L20.005,18.161C19.035,18.426 18.33,19.219 18.154,20.101L17.978,23.099C17.978,23.451 17.801,23.716 17.625,23.981C17.184,24.509 17.007,25.127 17.095,25.832C17.183,26.36 17.359,26.802 17.625,27.242C17.977,27.682 18.418,28.035 19.035,28.124L19.035,31.826L20.093,31.826L20.093,30.239L21.679,30.239L21.679,31.826L22.737,31.826L22.737,24.332L21.679,24.332L21.679,26.977L19.211,26.977C18.947,26.977 18.594,26.801 18.417,26.537C18.24,26.273 18.153,25.919 18.065,25.567C18.065,25.215 18.153,24.862 18.329,24.597C18.77,25.037 19.299,25.479 19.827,25.655L20.268,25.831L20.621,24.861L20.181,24.685C19.605,24.476 19.142,24.071 18.864,23.552L18.858,23.539C18.858,23.462 18.875,23.402 18.894,23.343L18.91,23.294C18.929,23.235 18.946,23.175 18.946,23.098L19.122,20.188C19.299,19.66 19.652,19.218 20.268,19.042L22.472,18.424L25.205,20.716C25.767,21.203 26.448,21.57 27.197,21.767L27.232,21.775L27.408,21.775L27.408,25.565L28.731,26.271L29.171,25.301L28.467,25.301L28.467,22.304L28.499,22.304C29.742,22.304 30.875,21.836 31.732,21.066L31.728,21.07L32.786,20.188L32.786,18.778L31.023,20.276C30.336,20.892 29.423,21.268 28.422,21.268C27.421,21.268 26.509,20.892 25.818,20.273L25.822,20.276L23.619,18.425L25.646,17.808C26.352,17.632 26.792,17.014 26.792,16.31L26.792,15.516L29.966,15.516L29.966,16.31C29.966,17.015 30.406,17.632 31.112,17.808L32.698,18.249L32.698,17.191L31.464,16.75C31.2,16.662 31.111,16.486 31.111,16.221L31.111,15.427L32.176,15.427C33.049,15.427 33.756,14.72 33.756,13.847L33.756,11.724C34.638,11.548 35.342,10.842 35.342,9.873C35.342,8.904 34.637,8.198 33.756,8.022L33.756,7.228C35.078,6.434 36.224,5.289 36.93,3.966L37.282,3.172L36.224,3.172L36.226,3.174C34.728,3.174 33.317,2.645 32.26,1.676C30.958,0.547 29.314,-0.068 27.666,-0.087ZM42.22,30.854L42.22,25.917C42.22,25.653 42.484,25.388 42.749,25.388L43.807,25.388C44.071,25.388 44.335,25.652 44.335,25.916L44.335,30.854L42.22,30.854ZM15.334,29.267L15.334,28.209C13.483,28.209 11.72,28.737 10.132,29.619L9.78,29.883L10.308,30.765L10.661,30.501C12.004,29.726 13.615,29.268 15.333,29.267L15.334,29.267ZM19.918,28.298L21.504,28.298L21.504,29.356L19.918,29.356L19.918,28.298ZM5.547,29.01L5.559,29.049L5.547,29.006L5.547,29.01ZM50.948,28.122C50.948,28.386 50.683,28.65 50.418,28.65L45.482,28.65L45.482,25.916C45.482,24.992 44.733,24.242 43.808,24.242L42.747,24.242C41.823,24.242 41.073,24.991 41.073,25.916L41.073,28.651L36.136,28.651C35.872,28.651 35.607,28.387 35.607,28.122L35.607,19.394C35.607,19.13 35.871,18.866 36.135,18.866L50.329,18.866C50.593,18.866 50.858,19.13 50.858,19.394L50.858,28.122L50.948,28.122ZM29.526,23.978C29.261,23.978 28.996,24.242 28.996,24.506C28.996,24.77 29.261,25.036 29.526,25.036C29.79,25.036 30.054,24.772 30.054,24.507C30.054,24.242 29.79,23.977 29.526,23.977L29.526,23.978ZM29.526,22.391C29.261,22.391 28.996,22.655 28.996,22.92C28.996,23.185 29.261,23.449 29.526,23.449C29.79,23.449 30.054,23.185 30.054,22.921C30.054,22.657 29.79,22.391 29.526,22.391ZM8.721,14.457L8.722,14.457L8.721,14.458L8.721,14.457C8.457,14.456 8.193,14.193 8.193,13.927L8.193,6.964C9.515,7.67 10.926,8.11 12.425,8.11C12.689,8.11 12.953,7.846 12.953,7.581L12.953,6.523L13.041,6.611C14.099,7.405 15.334,7.933 16.656,8.022L16.656,13.84C16.656,14.104 16.391,14.37 16.126,14.37L8.721,14.37L8.721,14.457ZM32.699,13.84C32.699,14.104 32.435,14.37 32.171,14.37L24.677,14.37C24.413,14.37 24.148,14.105 24.148,13.84L24.148,7.582L28.82,8.287C30.142,8.463 31.465,8.287 32.698,7.847L32.698,13.841L32.699,13.84ZM12.424,11.46C12.777,11.02 12.953,10.49 12.953,9.962L12.953,9.698L11.896,9.698L11.896,10.05C11.896,10.402 11.72,10.756 11.544,10.932L11.367,11.108L11.367,12.342L12.425,12.342L12.424,11.46ZM10.838,9.697C10.838,9.08 10.574,8.639 10.309,8.639C10.044,8.639 9.78,9.08 9.78,9.697C9.78,10.315 10.044,10.755 10.308,10.755C10.661,10.755 10.838,10.225 10.838,9.697ZM15.069,9.697C15.069,9.08 14.805,8.639 14.54,8.639C14.275,8.639 14.011,9.08 14.011,9.697C14.011,10.315 14.275,10.755 14.539,10.755C14.893,10.755 15.069,10.225 15.069,9.697ZM34.286,9.875C34.286,10.226 34.11,10.491 33.757,10.667L33.757,9.169C34.109,9.257 34.286,9.521 34.286,9.875ZM17.802,9.169C17.978,9.257 18.066,9.345 18.154,9.433C18.331,9.609 18.331,9.873 18.331,10.138C18.252,10.392 18.056,10.588 17.808,10.665L17.802,10.667L17.802,9.169ZM7.135,10.666C6.959,10.578 6.694,10.402 6.694,10.226C6.606,9.785 6.694,9.432 7.046,9.168L7.222,9.168L7.222,10.666L7.135,10.666ZM23.09,10.578C22.738,10.49 22.562,10.138 22.562,9.784C22.562,9.432 22.738,9.168 23.09,8.991L23.09,10.578ZM34.286,9.875L34.286,9.874L34.286,9.875ZM32.964,6.435L32.876,6.523C31.642,7.141 30.319,7.317 28.997,7.141L23.179,6.347L23.179,8.022L23.003,8.022L22.649,6.612C22.385,5.29 22.649,3.79 23.531,2.733C24.398,1.706 25.687,1.058 27.126,1.058L27.586,1.058C29.085,1.058 30.496,1.588 31.553,2.557C32.699,3.527 34.021,4.055 35.52,4.231C34.902,5.201 34.021,5.906 32.963,6.435L32.964,6.435ZM8.016,5.554L8.016,5.554L7.999,5.541L8.016,5.554ZM28.468,11.459C28.821,11.019 28.997,10.489 28.997,9.961L28.997,9.609L27.851,9.609L27.851,9.961C27.851,10.315 27.675,10.667 27.499,10.843L27.322,11.019L27.322,12.341L28.468,12.341L28.468,11.459ZM26.252,10.667L26.264,10.667L26.276,10.667C26.537,10.653 26.794,10.217 26.794,9.609C26.794,8.991 26.618,8.551 26.264,8.551C26,8.551 25.736,8.991 25.736,9.609C25.736,10.217 25.992,10.653 26.252,10.667ZM30.891,10.462L30.887,10.468L30.891,10.462C31.021,10.275 31.113,9.973 31.113,9.609C31.113,8.992 30.849,8.551 30.584,8.551C30.32,8.551 30.055,8.991 30.055,9.609L30.055,9.644C30.062,10.234 30.232,10.653 30.567,10.667L30.584,10.667C30.691,10.667 30.798,10.595 30.887,10.468L30.891,10.462Z" style="fill:rgb(237,127,45);fill-rule:nonzero;"/>
</svg>
