<?xml version="1.0" encoding="UTF-8" standalone="no"?>
<!DOCTYPE svg PUBLIC "-//W3C//DTD SVG 1.1//EN" "http://www.w3.org/Graphics/SVG/1.1/DTD/svg11.dtd">
<svg width="100%" height="100%" viewBox="0 0 33 26" version="1.1" xmlns="http://www.w3.org/2000/svg" xmlns:xlink="http://www.w3.org/1999/xlink" xml:space="preserve" xmlns:serif="http://www.serif.com/" style="fill-rule:evenodd;clip-rule:evenodd;stroke-linejoin:round;stroke-miterlimit:2;">
    <g transform="matrix(1.00143,0,0,1.00143,0.379058,-3.62917)">
        <g>
            <path d="M26.938,3.626L4.938,3.626C2.178,3.628 -0.06,5.864 -0.064,8.624L-0.064,23.375C-0.061,26.135 2.176,28.372 4.936,28.375L26.936,28.375C28.47,28.375 29.896,27.685 30.853,26.482C31.02,26.27 31.121,26 31.121,25.705C31.121,25.34 30.966,25.011 30.718,24.782L30.717,24.781L30.653,24.722L29.672,23.807L27.352,21.652L23.973,18.521C23.751,18.315 23.452,18.188 23.123,18.188C22.433,18.188 21.873,18.748 21.873,19.438C21.873,19.8 22.027,20.126 22.273,20.354L22.274,20.355C28.547,26.134 30.404,27.86 32.26,29.587L27.98,25.648C27.674,25.791 27.316,25.875 26.939,25.875L4.939,25.875C4.568,25.875 4.216,25.793 3.899,25.648L9.601,20.354C9.847,20.125 10,19.799 10,19.438C10,18.748 9.44,18.188 8.75,18.188C8.421,18.188 8.122,18.315 7.899,18.523L7.9,18.522L2.449,23.584C2.443,23.522 2.44,23.45 2.439,23.377L2.439,8.629C2.439,8.555 2.444,8.482 2.45,8.411L11.901,17.11C12.123,17.315 12.421,17.441 12.748,17.441L19.131,17.441C19.458,17.441 19.756,17.315 19.978,17.109L19.977,17.11L29.428,8.412C29.434,8.484 29.438,8.556 29.438,8.628L29.438,18.378C29.438,19.069 29.998,19.628 30.688,19.628C31.378,19.628 31.938,19.068 31.938,18.378L31.938,8.624C31.934,5.864 29.698,3.628 26.938,3.624L26.938,3.626ZM18.642,14.938L13.234,14.938L3.904,6.351C4.219,6.207 4.57,6.127 4.938,6.127L26.938,6.127C27.306,6.127 27.658,6.207 27.973,6.351L18.642,14.938Z" style="fill:rgb(237,127,45);fill-rule:nonzero;"/>
        </g>
    </g>
</svg>
