<?xml version="1.0" encoding="UTF-8"?>
<svg version="1.1" xmlns="http://www.w3.org/2000/svg" xmlns:xlink="http://www.w3.org/1999/xlink" viewBox="0 0 32 32">
  <path d="M26.938 3.626h-22c-2.76 0.002-4.998 2.238-5.002 4.998v14.751c0.003 2.76 2.24 4.997 5 5h22c1.534 0 2.96-0.69 3.917-1.893 0.167-0.212 0.268-0.482 0.268-0.777 0-0.365-0.155-0.694-0.403-0.923l-0.001-0.001-0.064-0.059-0.981-0.915-2.32-2.155-3.379-3.131c-0.222-0.206-0.521-0.333-0.85-0.333-0.69 0-1.25 0.56-1.25 1.25 0 0.362 0.154 0.688 0.4 0.916l0.001 0.001c6.273 5.779 8.13 7.505 9.986 9.232l-4.28-3.939c-0.306 0.143-0.664 0.227-1.041 0.227-0.001 0-0.001 0-0.002 0h-21.998c-0.371 0-0.723-0.082-1.040-0.227l5.702-5.294c0.246-0.229 0.399-0.555 0.399-0.916 0-0.69-0.56-1.25-1.25-1.25-0.329 0-0.628 0.127-0.851 0.335l0.001-0.001-5.451 5.062c-0.006-0.062-0.009-0.134-0.010-0.207v-14.748c0-0.074 0.005-0.147 0.011-0.218l9.451 8.699c0.222 0.205 0.52 0.331 0.847 0.331 0 0 0 0 0.001 0h6.382c0.327-0 0.625-0.126 0.847-0.332l-0.001 0.001 9.451-8.698c0.006 0.072 0.010 0.144 0.010 0.216v9.75c0 0.691 0.56 1.25 1.25 1.25s1.25-0.56 1.25-1.25v0-9.754c-0.004-2.76-2.24-4.996-5-5h-0zM18.642 14.938h-5.408l-9.33-8.587c0.315-0.144 0.666-0.224 1.034-0.224h22c0.368 0 0.72 0.080 1.035 0.224l-9.331 8.587z"></path>
</svg>