<?xml version="1.0" encoding="UTF-8" standalone="no"?>
<!DOCTYPE svg PUBLIC "-//W3C//DTD SVG 1.1//EN" "http://www.w3.org/Graphics/SVG/1.1/DTD/svg11.dtd">
<svg width="100%" height="100%" viewBox="0 0 32 32" version="1.1" xmlns="http://www.w3.org/2000/svg" xmlns:xlink="http://www.w3.org/1999/xlink" xml:space="preserve" xmlns:serif="http://www.serif.com/" style="fill-rule:evenodd;clip-rule:evenodd;stroke-linejoin:round;stroke-miterlimit:2;">
    <path d="M31.997,25.784C31.952,24.503 31.404,23.359 30.547,22.534L30.545,22.533C28.799,20.848 27.335,19.877 25.942,19.474C24.02,18.919 22.24,19.424 20.652,20.975C20.649,20.978 20.647,20.98 20.644,20.983L18.954,22.66C17.898,22.065 15.844,20.758 13.626,18.538L13.461,18.373C11.24,16.154 9.933,14.101 9.339,13.045L11.016,11.355C11.019,11.352 11.021,11.35 11.024,11.347C12.576,9.76 13.08,7.979 12.525,6.057C12.122,4.663 11.149,3.199 9.466,1.455C8.64,0.596 7.496,0.048 6.223,0.002L6.215,0.002C6.161,-0 6.099,-0.001 6.035,-0.001C4.814,-0.001 3.701,0.461 2.862,1.22L2.866,1.216L2.829,1.248C2.812,1.264 2.796,1.279 2.781,1.294C0.946,3.129 -0.017,5.697 -0.001,8.723C0.025,13.862 2.849,19.739 7.554,24.443C8.472,25.354 9.449,26.209 10.479,26.999L10.551,27.052C10.759,27.213 11.024,27.31 11.311,27.31C12.001,27.31 12.561,26.751 12.561,26.06C12.561,25.657 12.37,25.299 12.074,25.07L12.071,25.068C11.061,24.294 10.164,23.51 9.321,22.673L9.323,22.675C5.073,18.425 2.523,13.205 2.501,8.71C2.488,6.38 3.189,4.436 4.527,3.084L4.537,3.074C4.934,2.714 5.464,2.493 6.045,2.493C6.683,2.493 7.26,2.759 7.669,3.187L7.67,3.188C10.905,6.545 10.672,8.129 9.241,9.594L6.924,11.93C6.699,12.156 6.56,12.467 6.56,12.811C6.56,12.995 6.6,13.169 6.671,13.326L6.668,13.318C6.727,13.449 8.151,16.593 11.695,20.137L11.86,20.302C15.404,23.846 18.548,25.268 18.681,25.328C19.151,25.538 19.703,25.437 20.07,25.074L22.404,22.757C23.87,21.327 25.455,21.093 28.81,24.328C29.69,25.176 29.738,26.552 28.922,27.459L28.914,27.47C27.573,28.796 25.65,29.497 23.346,29.497L23.288,29.497C21.446,29.487 19.314,28.982 17.12,28.036C16.974,27.971 16.804,27.934 16.625,27.934C15.934,27.934 15.375,28.494 15.375,29.184C15.375,29.695 15.682,30.135 16.122,30.329L16.13,30.332C18.666,31.425 21.069,31.985 23.276,31.996L23.346,31.996C26.341,31.996 28.884,31.036 30.706,29.214C30.721,29.199 30.735,29.183 30.75,29.167L30.783,29.129C31.612,28.207 32.042,27.019 31.999,25.78L31.997,25.784Z" style="fill:rgb(237,127,45);fill-rule:nonzero;"/>
</svg>
