<?xml version="1.0" encoding="UTF-8" standalone="no"?><!DOCTYPE svg PUBLIC "-//W3C//DTD SVG 1.1//EN" "http://www.w3.org/Graphics/SVG/1.1/DTD/svg11.dtd"><svg width="100%" height="100%" viewBox="0 0 467 559" version="1.1" xmlns="http://www.w3.org/2000/svg" xmlns:xlink="http://www.w3.org/1999/xlink" xml:space="preserve" xmlns:serif="http://www.serif.com/" style="fill-rule:evenodd;clip-rule:evenodd;stroke-linejoin:round;stroke-miterlimit:2;"><path d="M463.163,484.975c-2.43,-11.738 -13.921,-19.271 -25.659,-16.842c-11.737,2.43 -19.271,13.925 -16.841,25.659c0.958,4.583 -0.209,9.325 -3.192,12.987c-1.633,2.013 -5.246,5.384 -11.079,5.384l-144.113,-0l58.592,-149.846c21.337,11.058 40.646,26.129 56.737,44.704c7.846,9.062 21.546,10.037 30.609,2.187c9.062,-7.845 10.033,-21.541 2.187,-30.604c-26.65,-30.766 -60.471,-53.7 -97.916,-67.225c27.17,-22.9 44.479,-57.187 44.479,-95.433c-0,-22.467 -5.904,-44.008 -16.963,-62.883l66.875,-24.634l0,107.05c0,11.979 9.721,21.7 21.7,21.7c11.979,0 21.704,-9.721 21.704,-21.7l0,-136.721c0,-0.208 -0.037,-0.416 -0.037,-0.641c0.021,-0.279 0.037,-0.554 0.037,-0.834l0,-1.216c0,-9.009 -5.575,-17.084 -13.995,-20.296l-195.78,-74.354c-4.95,-1.875 -10.4,-1.896 -15.345,-0.021l-197.017,74.15c-8.454,3.179 -14.063,11.267 -14.063,20.312l0,1.217c0,9.113 5.696,17.258 14.255,20.383l96.25,35.188c-11.196,18.958 -17.171,40.646 -17.171,63.283c-0,38.279 17.346,72.588 44.566,95.504c-25.137,9.113 -48.733,22.463 -69.583,39.671c-41.458,34.2 -70.279,81.909 -81.162,134.321c-3.596,17.308 0.729,35.088 11.858,48.767c11.042,13.579 27.412,21.354 44.912,21.354l348.421,-0c17.358,-0 33.679,-7.796 44.738,-21.388c11.266,-13.837 15.641,-31.77 12.033,-49.2l-0.037,0.017Zm-366.63,-388.767l136.234,-51.287l135.521,51.475l-61.063,22.5c-21.317,-9.913 -54.479,-11.684 -74.808,-11.734c-20.329,-0.07 -53.504,1.58 -74.842,11.371l-61.058,-22.325l0.016,0Zm54.271,119.754c0,-21.804 8.504,-42.237 23.942,-57.637c4.2,-2.554 23.471,-7.763 56.854,-7.763l0.767,0c33.887,0.088 53.366,5.455 57.55,8.059c15.245,15.346 23.645,35.675 23.645,57.325c0,44.879 -36.508,81.371 -81.387,81.371c-44.879,-0 -81.371,-36.509 -81.371,-81.371l0,0.016Zm-92.812,296.217c-5.992,0 -9.621,-3.35 -11.234,-5.346c-1.666,-2.066 -4.287,-6.425 -3.021,-12.554c12.03,-57.967 49.88,-105.554 99.88,-131.7l58.504,149.6l-144.129,0Zm126.091,-165.262c15.454,-4.042 31.6,-6.18 48.109,-6.18c16.408,0 32.57,2.1 48.141,6.113l-48.141,123.108l-48.109,-123.041Z" style="fill:#fff;fill-rule:nonzero;"/></svg>